<?xml version="1.0" standalone="no"?>
<!DOCTYPE svg PUBLIC "-//W3C//DTD SVG 20010904//EN"
 "http://www.w3.org/TR/2001/REC-SVG-20010904/DTD/svg10.dtd">
<svg version="1.0" xmlns="http://www.w3.org/2000/svg"
 width="780.000000pt" height="780.000000pt" viewBox="0 0 780.000000 780.000000"
 preserveAspectRatio="xMidYMid meet">
<metadata>
Created by potrace 1.14, written by Peter Selinger 2001-2017
</metadata>
<g transform="translate(0.000000,780.000000) scale(0.100000,-0.100000)"
fill="#000000" stroke="none">
<path d="M123 7103 c-12 -4 432 -453 448 -453 4 0 9 -5 11 -10 2 -6 103 -111
225 -233 123 -123 220 -227 215 -232 -4 -4 -2 -5 4 -2 7 4 25 -8 41 -26 53
-61 110 -99 148 -101 19 0 35 -5 35 -9 0 -4 9 -3 19 3 14 7 22 7 26 0 5 -8 11
-8 20 0 9 7 15 8 19 1 5 -7 15 -7 32 -1 15 6 23 6 19 1 -3 -6 6 -7 22 -3 35 9
55 9 71 -1 6 -5 12 -4 12 0 0 9 57 9 66 0 3 -3 20 -1 39 3 21 5 38 3 44 -3 6
-6 11 -7 11 -1 0 5 54 9 130 9 71 0 130 -4 130 -8 0 -5 6 -5 13 0 18 11 127
10 127 -2 0 -7 3 -7 8 0 4 6 14 10 22 10 8 0 18 -4 22 -10 5 -7 8 -6 8 0 0 14
232 14 242 0 5 -7 8 -7 8 0 0 11 89 13 107 2 6 -4 14 -3 17 1 6 10 42 9 52 0
3 -4 17 -3 31 3 13 5 22 5 19 1 -5 -8 69 -7 82 2 4 2 14 1 22 -4 9 -5 19 -5
27 2 7 6 13 7 13 2 0 -5 16 -9 35 -9 19 0 35 5 35 10 0 6 3 6 8 0 9 -13 105
-13 114 0 5 7 8 6 8 0 0 -14 232 -14 242 0 5 7 8 7 8 0 0 -12 98 -14 117 -2 6
4 14 3 17 -1 6 -10 42 -9 52 1 4 3 14 3 23 -2 20 -9 52 -8 69 2 6 5 12 4 12 0
0 -5 16 -8 35 -8 19 0 35 4 35 8 0 5 6 5 12 1 19 -12 48 -12 48 -1 0 6 5 6 13
0 6 -5 32 -7 57 -6 64 4 62 4 93 0 15 -2 27 0 27 5 0 5 5 6 12 2 15 -9 71 -10
86 -1 6 4 13 3 16 -2 7 -10 25 -9 44 2 6 5 12 4 12 -1 0 -10 30 -9 48 2 6 4
12 3 12 -2 0 -10 30 -10 46 1 6 3 14 3 18 0 11 -11 156 -9 156 2 0 6 3 6 8 0
4 -6 34 -11 67 -11 33 0 63 5 67 11 5 6 8 6 8 0 0 -6 22 -10 50 -11 30 0 47 3
43 9 -4 6 -1 7 8 1 19 -11 109 -12 109 -1 0 6 5 6 13 1 15 -11 38 -11 55 -1 6
5 12 4 12 0 0 -10 41 -10 58 1 7 4 12 3 12 -1 0 -10 61 -10 77 0 6 4 15 3 18
-3 5 -8 11 -8 20 0 10 8 15 8 20 0 5 -8 10 -8 20 0 9 8 15 8 20 0 3 -6 12 -7
18 -3 15 9 47 12 47 3 0 -3 9 -6 20 -6 11 0 20 4 20 9 0 5 6 5 13 -1 8 -7 18
-7 27 -2 8 5 21 5 31 -1 12 -6 19 -5 22 4 4 9 6 9 6 0 1 -9 8 -10 24 -4 13 5
30 5 37 1 9 -5 20 -4 27 2 7 6 13 7 13 2 0 -5 18 -9 40 -9 22 0 40 4 40 9 0 5
6 3 14 -3 10 -9 16 -9 21 -1 5 8 10 8 20 0 10 -8 15 -8 20 0 5 8 10 8 20 0 7
-6 15 -7 18 -3 6 9 75 9 84 0 3 -3 16 -2 30 4 16 6 22 6 18 -1 -4 -6 2 -7 18
-1 13 5 30 5 37 1 8 -5 19 -5 26 1 8 7 14 6 19 -1 5 -8 10 -8 20 0 9 8 15 8
20 0 4 -6 12 -7 24 0 12 6 22 5 28 -1 8 -8 13 -8 17 0 4 7 15 7 30 1 13 -5 27
-6 30 -2 11 10 116 8 116 -3 0 -6 3 -7 8 0 8 11 42 16 42 6 0 -3 21 -7 46 -9
26 -1 51 -5 58 -9 6 -4 22 -9 36 -11 13 -2 30 -8 37 -14 7 -6 13 -7 13 -4 0 4
10 1 23 -6 12 -6 28 -13 36 -14 8 -2 17 -8 21 -14 4 -7 10 -10 13 -8 4 1 17
-6 29 -17 13 -10 23 -17 23 -15 0 2 18 -8 40 -22 58 -37 185 -170 185 -194 0
-8 4 -14 9 -14 5 0 16 -15 25 -32 9 -18 20 -40 25 -48 29 -55 41 -84 41 -101
0 -10 4 -19 8 -19 4 0 9 -8 10 -17 2 -22 10 -58 12 -58 2 0 10 -36 16 -75 12
-76 7 -202 -12 -280 -3 -14 -6 -31 -6 -37 -1 -7 -5 -13 -10 -13 -4 0 -8 -9 -8
-21 0 -23 -49 -132 -62 -137 -4 -2 -8 -9 -8 -16 0 -15 -57 -104 -87 -136 -13
-13 -23 -27 -23 -32 0 -4 -3 -8 -8 -8 -4 0 -34 -25 -67 -55 -32 -30 -67 -55
-77 -55 -10 0 -18 -5 -18 -10 0 -6 -10 -14 -23 -19 -12 -5 -46 -20 -75 -34
-30 -14 -60 -23 -68 -20 -8 3 -14 0 -14 -7 0 -6 -4 -8 -10 -5 -5 3 -10 2 -10
-2 0 -8 -19 -13 -62 -16 -10 -1 -18 -5 -18 -10 0 -5 -7 -7 -15 -3 -8 3 -15 2
-15 -2 0 -4 -41 -9 -92 -11 -51 -1 -96 -5 -100 -7 -4 -3 -8 1 -8 8 0 8 -3 9
-8 3 -9 -12 -412 -14 -412 -2 0 5 -5 5 -10 2 -16 -10 -370 -11 -370 -2 0 5 -5
5 -11 1 -18 -11 -129 -10 -133 1 -3 7 -5 7 -5 0 -1 -6 -84 -9 -232 -8 -127 1
-229 -1 -225 -4 3 -3 -8 -19 -24 -35 -17 -15 -30 -31 -30 -35 0 -3 -7 -13 -15
-22 -46 -51 -55 -62 -55 -67 0 -3 -15 -25 -32 -48 -18 -24 -40 -54 -48 -66 -8
-12 -20 -28 -25 -34 -6 -6 -21 -28 -35 -48 -14 -21 -28 -38 -32 -38 -5 0 -8
-5 -8 -11 0 -11 -51 -83 -74 -104 -6 -6 -31 -39 -55 -75 -25 -36 -48 -66 -53
-68 -4 -2 -8 -8 -8 -14 0 -6 -11 -21 -26 -34 -14 -13 -22 -24 -19 -24 4 0 -11
-22 -32 -49 -21 -27 -45 -59 -53 -71 -8 -12 -20 -28 -26 -34 -5 -6 -13 -19
-17 -29 -4 -10 -12 -15 -17 -12 -6 4 -9 3 -8 -2 2 -9 -19 -50 -36 -70 -34 -39
-36 -42 -24 -49 15 -10 61 -10 76 0 7 4 12 3 12 -3 0 -7 8 -7 24 -1 15 5 27 5
34 -2 7 -7 17 -6 31 1 15 8 27 9 40 1 14 -7 22 -7 26 0 5 8 11 7 21 -1 11 -9
14 -9 14 1 0 9 4 9 13 2 8 -7 18 -7 27 -2 9 5 19 5 27 -2 9 -7 13 -7 13 1 0 8
5 9 19 1 14 -7 22 -7 26 0 5 8 11 7 21 -1 11 -9 14 -9 14 0 0 8 5 9 17 3 9 -5
28 -6 43 -2 15 4 33 5 39 1 7 -4 32 -5 57 -1 24 4 47 3 50 -2 3 -4 13 -4 23 2
12 6 22 5 28 -1 8 -8 13 -7 17 0 5 8 13 8 27 1 14 -8 19 -7 19 1 0 8 4 9 13 0
10 -7 17 -7 24 0 7 7 13 7 17 1 3 -6 20 -7 40 -2 19 4 37 6 40 3 9 -10 42 -10
54 0 8 6 17 5 29 -4 9 -8 18 -13 19 -11 10 10 65 19 69 12 3 -5 18 -5 33 0 16
4 36 4 45 -2 11 -5 24 -5 37 2 14 7 26 8 39 0 13 -6 28 -7 44 -1 13 5 30 5 37
1 8 -5 21 -5 31 0 9 5 19 7 22 4 10 -11 77 -10 80 1 3 7 8 7 18 0 8 -6 25 -9
39 -8 74 7 100 8 100 2 0 -3 17 -4 38 -3 84 6 98 6 120 1 12 -3 22 -1 22 5 0
7 4 7 13 0 6 -5 21 -6 32 -2 11 4 27 5 35 1 19 -8 42 -7 58 2 6 5 18 5 25 0
16 -10 28 -11 53 -2 11 4 27 3 36 -2 9 -5 19 -6 22 -1 6 9 47 8 64 -2 7 -4 12
-2 12 5 0 9 3 9 14 0 10 -9 16 -9 21 -1 5 8 10 8 20 0 10 -8 15 -8 20 0 5 8
11 8 19 1 9 -7 16 -7 24 1 7 7 12 8 12 3 0 -6 24 -11 53 -11 49 -2 68 -4 142
-19 44 -8 128 -36 141 -46 6 -5 14 -6 17 -2 4 3 7 1 7 -5 0 -7 5 -12 11 -12
15 0 97 -57 139 -97 19 -18 38 -33 43 -33 4 0 7 -7 7 -15 0 -8 8 -15 17 -15 9
0 14 -2 11 -5 -3 -3 10 -23 29 -43 18 -20 40 -44 48 -53 8 -9 15 -20 15 -26 0
-6 9 -22 20 -35 10 -14 16 -28 13 -32 -3 -3 -1 -6 6 -6 7 0 9 -5 6 -10 -3 -5
-2 -10 3 -10 6 0 61 -147 67 -180 15 -86 18 -114 19 -160 1 -48 -3 -86 -18
-165 -7 -35 -38 -119 -48 -133 -6 -6 -8 -12 -5 -12 8 0 -42 -101 -61 -122 -8
-10 -12 -18 -8 -18 4 0 1 -7 -6 -15 -30 -33 -38 -45 -38 -55 0 -6 -4 -8 -10
-5 -5 3 -10 1 -10 -5 0 -16 -122 -130 -132 -124 -4 3 -8 1 -8 -4 0 -13 -78
-63 -100 -65 -10 -1 -16 -5 -14 -9 3 -4 -2 -8 -11 -8 -9 0 -27 -7 -40 -16 -14
-9 -25 -13 -25 -9 0 4 -7 2 -15 -5 -8 -6 -19 -9 -25 -5 -5 3 -10 2 -10 -3 0
-5 -21 -13 -47 -17 -27 -5 -55 -10 -63 -13 -34 -9 -657 -20 -695 -12 -5 1 -14
1 -20 0 -36 -7 -155 -4 -155 5 0 5 -4 4 -9 -3 -11 -17 -21 -17 -32 0 -5 7 -9
9 -9 3 0 -6 -94 -10 -262 -10 -164 0 -266 4 -270 10 -5 7 -8 7 -8 0 0 -11
-262 -11 -280 0 -5 3 -10 3 -10 -2 0 -12 -633 -10 -642 2 -5 7 -8 7 -8 0 0 -6
-28 -10 -66 -9 -56 1 -67 -2 -73 -18 -12 -33 -7 -1006 6 -1019 15 -15 93 -20
93 -5 0 7 3 8 8 1 8 -12 81 -13 100 -2 6 5 12 4 12 -1 0 -5 17 -7 38 -5 43 4
42 4 110 0 28 -2 52 1 52 6 0 5 6 5 13 -1 8 -7 18 -7 27 -2 8 5 21 5 30 0 9
-5 22 -5 30 0 8 5 18 6 23 3 13 -8 118 -10 122 -3 5 7 64 4 72 -4 3 -3 13 -1
23 4 10 5 20 6 24 3 11 -11 126 -9 126 2 0 5 5 3 10 -5 9 -13 10 -13 10 0 0 9
3 11 8 5 9 -13 175 -13 184 0 5 6 8 6 8 -2 0 -12 17 -12 38 0 6 5 12 4 12 0 0
-5 16 -9 35 -9 19 0 35 5 35 11 0 7 3 7 8 0 9 -14 185 -14 194 0 5 7 8 7 8 0
0 -14 133 -14 142 0 5 7 8 7 8 0 0 -12 128 -14 146 -2 6 3 14 3 18 -1 12 -11
166 -9 166 3 0 6 3 7 8 0 10 -14 225 -14 234 0 5 6 8 6 8 0 0 -11 178 -14 195
-3 6 4 17 3 24 -1 7 -5 28 -5 46 -1 18 4 40 3 49 -2 9 -5 16 -5 16 0 0 5 12 8
28 7 15 -1 30 3 34 9 5 7 8 7 8 -2 0 -7 4 -11 8 -8 8 5 62 13 141 21 25 3 59
9 75 14 17 6 42 12 56 15 24 4 110 31 140 44 8 3 20 7 25 7 12 2 49 17 109 45
25 11 50 20 55 20 6 0 11 5 11 10 0 6 9 10 20 10 11 0 20 4 20 8 0 4 20 16 45
26 25 11 45 23 45 28 0 4 7 8 15 8 8 0 15 5 15 11 0 5 4 8 9 5 5 -3 20 5 34
18 14 13 28 21 31 18 3 -3 6 0 6 6 0 7 7 12 15 12 7 0 18 8 24 17 5 10 12 15
16 11 3 -3 19 6 35 20 15 15 49 45 75 67 26 22 72 65 103 95 32 30 61 53 65
52 5 -1 6 2 3 7 -4 5 2 14 11 20 10 6 15 11 11 11 -3 0 8 15 25 33 48 50 106
117 105 120 -1 1 16 29 39 62 22 33 55 88 73 123 17 34 37 62 42 62 6 0 8 7 4
15 -3 8 -1 15 5 15 6 0 8 4 4 9 -3 5 -1 12 5 16 6 4 8 11 5 16 -4 5 -2 9 3 9
5 0 12 8 14 17 3 10 6 23 7 28 2 6 8 19 14 30 6 11 12 22 12 25 1 7 36 113 43
130 3 8 7 22 8 30 2 8 10 44 19 80 19 76 28 132 29 177 1 18 4 33 7 33 7 0 9
36 9 210 0 129 -4 225 -10 225 -3 0 -11 84 -13 128 -1 20 -4 37 -7 37 -4 0 -7
6 -7 13 0 6 -3 23 -7 37 -3 14 -8 39 -12 55 -3 17 -8 37 -11 45 -4 8 -7 18 -8
23 -2 4 -4 9 -5 12 -1 3 -3 8 -5 13 -14 52 -20 69 -31 91 -8 14 -14 29 -14 33
0 4 -12 33 -27 65 -14 32 -26 63 -26 70 0 7 -3 10 -7 8 -3 -2 -12 11 -20 28
-7 18 -31 58 -52 89 -21 31 -38 62 -38 67 0 6 -4 11 -8 11 -4 0 -15 12 -24 27
-9 16 -28 40 -42 55 -14 15 -26 32 -26 38 0 6 -5 8 -10 5 -6 -3 -10 -1 -10 5
0 11 -7 19 -94 109 l-48 51 36 36 c20 20 36 38 36 40 0 5 37 48 72 85 14 15
34 42 44 58 10 17 22 31 26 31 4 0 8 6 8 14 0 8 4 16 9 18 11 4 81 114 81 128
0 5 7 10 16 10 8 0 13 4 9 9 -4 8 12 45 43 96 4 6 7 16 9 24 1 8 8 18 15 22 7
5 9 9 4 9 -5 0 -3 7 4 15 7 8 9 15 5 15 -5 0 0 10 11 22 10 12 14 19 8 15 -6
-4 -3 10 7 31 10 20 20 46 22 57 1 11 5 25 8 30 4 6 12 35 20 65 7 30 16 60
20 65 3 6 5 20 4 33 -1 12 1 22 5 22 7 0 9 9 12 55 1 14 4 25 8 25 3 0 5 12 6
28 0 15 4 56 8 92 4 36 9 83 10 106 2 22 6 45 9 51 4 6 4 13 0 17 -3 3 -7 43
-9 88 -1 46 -5 106 -9 133 -3 28 -8 64 -10 80 -4 36 -11 66 -25 120 -6 22 -13
49 -15 60 -5 26 -11 46 -17 65 -3 8 -23 63 -43 123 -20 59 -41 107 -47 107 -5
0 -8 6 -7 13 2 19 -12 57 -22 57 -5 0 -9 9 -9 20 0 11 -4 20 -10 20 -5 0 -10
9 -10 20 0 11 -7 23 -16 27 -8 3 -13 12 -10 19 3 8 1 14 -4 14 -6 0 -10 7 -10
15 0 8 -4 15 -10 15 -5 0 -10 6 -10 13 0 6 -14 28 -30 47 -16 19 -30 39 -30
43 0 5 -6 14 -12 22 -7 7 -29 32 -48 56 -55 68 -332 339 -347 339 -3 0 -22 14
-43 30 -21 17 -43 30 -49 30 -6 0 -11 4 -11 9 0 5 -13 14 -30 21 -16 7 -30 16
-30 21 0 5 -3 8 -7 7 -12 -3 -103 45 -103 54 0 4 -6 8 -13 8 -7 0 -33 10 -58
22 -24 12 -46 23 -49 23 -3 1 -16 6 -30 12 -47 20 -85 35 -100 38 -38 8 -45
10 -51 17 -3 5 -17 9 -32 10 -15 1 -27 5 -27 9 0 4 -11 6 -25 4 -14 -1 -28 1
-30 6 -3 4 -13 8 -23 7 -9 0 -30 3 -47 7 -46 10 -75 15 -130 20 -27 3 -79 8
-115 11 -92 9 -2451 11 -2456 2 -3 -4 -15 -3 -27 1 -14 6 -30 5 -41 -1 -14 -8
-21 -7 -27 3 -7 12 -9 12 -9 0 0 -10 -3 -11 -14 -2 -8 7 -17 8 -20 3 -3 -5
-26 -6 -50 -2 -25 4 -51 3 -58 -1 -7 -4 -18 -3 -25 3 -9 7 -13 7 -13 0 0 -8
-17 -9 -40 -2 -14 5 -82 2 -87 -4 -3 -3 -12 -1 -20 5 -7 6 -13 8 -13 3 0 -5
-43 -7 -96 -4 -53 3 -98 2 -101 -3 -2 -4 -13 -2 -24 3 -10 6 -19 7 -19 3 0 -4
-43 -6 -96 -3 -53 3 -101 2 -107 -2 -6 -4 -17 -2 -24 4 -9 7 -13 7 -13 0 0
-11 -25 -11 -35 0 -4 3 -19 3 -33 -2 -15 -4 -37 -3 -50 1 -13 5 -22 4 -22 -1
0 -6 -9 -6 -24 0 -13 5 -27 6 -30 3 -8 -8 -57 -10 -81 -2 -11 3 -29 3 -40 -1
-11 -4 -29 -4 -40 0 -11 4 -29 4 -40 0 -11 -4 -29 -4 -40 0 -11 4 -29 4 -40 0
-11 -4 -29 -4 -40 0 -11 4 -29 4 -40 0 -11 -4 -30 -4 -42 1 -16 6 -23 5 -23
-4 0 -8 -4 -7 -10 3 -5 8 -10 10 -10 4 0 -6 -7 -11 -15 -11 -8 0 -15 4 -15 8
0 5 -11 4 -25 -1 -17 -6 -25 -6 -25 1 0 6 -5 7 -12 3 -13 -9 -134 -8 -148 1
-5 3 -10 3 -10 -2 0 -10 -137 -9 -147 0 -3 4 -13 1 -21 -6 -13 -10 -14 -9 -7
3 6 12 5 12 -5 3 -8 -7 -20 -9 -35 -3 -13 5 -25 7 -27 5 -7 -8 -109 -11 -113
-4 -3 3 -24 3 -48 -1 -24 -3 -52 -3 -63 1 -10 3 -23 4 -29 1 -11 -7 -155 -3
-167 4 -5 3 -8 0 -8 -6 0 -6 -5 -8 -11 -4 -13 7 -906 14 -926 7z"/>
<path d="M156 4401 c-4 -5 -17 -8 -31 -5 -30 5 -33 -5 -42 -136 -8 -128 -10
-2395 -2 -2443 3 -20 4 -37 0 -37 -7 0 -5 -96 3 -116 3 -8 1 -14 -5 -14 -6 0
-8 -9 -4 -21 8 -24 10 -112 4 -125 -5 -8 -5 -24 1 -41 6 -19 4 -50 -3 -66 -4
-9 -4 -17 0 -17 11 0 10 -121 0 -137 -5 -7 -5 -13 0 -13 13 0 12 -204 -1 -212
-8 -5 -8 -8 0 -8 7 0 11 -48 12 -147 0 -82 2 -150 3 -153 1 -3 2 -12 3 -20 1
-17 41 -21 68 -8 9 4 19 4 22 0 4 -7 89 -9 106 -2 8 3 73 1 103 -3 15 -2 27 0
27 5 0 5 4 6 10 3 16 -10 90 -11 90 -2 0 4 5 5 11 1 15 -9 128 -11 122 -2 -2
5 6 5 19 0 29 -9 70 -8 86 2 6 4 12 3 12 -2 0 -6 14 -7 34 -2 19 4 37 6 40 3
9 -9 56 -10 56 -1 0 5 6 6 13 1 15 -9 97 -12 102 -3 3 6 50 5 50 0 0 -6 46 -5
56 1 9 5 12 327 13 1330 l1 1324 23 1 c12 1 25 4 28 6 3 3 21 2 40 -2 20 -5
34 -4 34 1 0 6 8 5 19 -1 12 -6 22 -6 25 -1 3 5 21 5 41 1 21 -5 35 -4 35 1 0
6 8 5 19 -1 12 -6 22 -6 25 -1 3 5 21 5 41 1 21 -5 35 -4 35 1 0 6 8 5 19 -1
12 -6 22 -6 25 -1 3 5 21 5 41 1 21 -5 35 -4 35 1 0 6 9 5 20 -1 11 -6 20 -7
20 -2 0 5 18 6 40 2 22 -4 40 -3 40 2 0 5 9 4 20 -2 11 -6 20 -7 20 -1 0 5 14
6 35 1 20 -4 38 -4 41 1 3 5 13 5 25 -1 10 -6 19 -7 19 -3 0 6 667 8 690 2 3
-1 10 0 15 1 20 4 227 0 235 -5 5 -3 11 -1 15 5 4 7 12 7 25 0 11 -6 21 -6 24
-1 3 5 15 7 27 4 25 -7 69 15 69 35 0 9 3 12 6 9 4 -4 14 7 23 22 9 16 25 41
36 56 11 15 35 47 53 70 17 24 32 48 32 53 0 4 14 21 30 37 17 16 30 37 30 47
0 11 4 17 9 13 5 -3 12 4 16 15 4 12 11 17 18 14 7 -4 9 -4 5 1 -7 7 37 78 66
108 8 8 12 17 9 21 -3 3 2 8 11 12 9 3 16 12 16 20 0 8 5 14 11 14 5 0 7 5 4
10 -3 6 -2 10 3 10 8 0 28 25 82 105 47 69 85 121 94 127 6 4 7 8 3 8 -4 0 3
11 17 24 15 13 26 28 26 35 0 6 5 11 10 11 6 0 10 7 10 15 0 8 5 15 10 15 6 0
10 6 10 14 0 8 7 17 16 20 9 4 14 9 11 12 -3 4 -1 11 4 18 47 56 59 72 59 82
0 11 -601 11 -619 0 -5 -4 -12 -3 -15 2 -3 5 -28 6 -55 2 -28 -3 -57 -2 -65 2
-10 5 -24 4 -37 -2 -14 -8 -24 -8 -32 -1 -8 6 -18 6 -27 1 -9 -5 -19 -5 -27 1
-8 7 -19 7 -33 -1 -14 -8 -25 -8 -33 -1 -8 6 -18 6 -27 1 -9 -5 -19 -5 -27 2
-9 7 -13 7 -13 -1 0 -8 -5 -9 -19 -1 -14 7 -22 7 -26 0 -5 -8 -11 -7 -21 1
-11 9 -14 9 -14 0 0 -8 -5 -9 -19 -1 -14 7 -22 7 -26 0 -4 -6 -12 -7 -18 -3
-10 6 -52 8 -59 3 -9 -6 -50 -5 -54 1 -2 5 -16 4 -30 -1 -14 -6 -23 -6 -20 -2
3 4 -10 7 -27 5 -18 -2 -39 -4 -47 -3 -18 0 -62 -1 -112 -4 -21 -1 -38 2 -38
7 0 4 -4 6 -9 2 -17 -10 -71 -13 -71 -3 0 5 -8 5 -18 -1 -11 -6 -24 -6 -35 0
-12 7 -17 6 -17 -3 0 -9 -3 -9 -11 -1 -8 8 -20 8 -35 3 -16 -7 -24 -6 -24 1 0
8 -4 8 -13 1 -7 -6 -19 -7 -26 -3 -7 5 -28 5 -47 1 -20 -5 -34 -4 -34 2 0 5
-6 6 -12 2 -16 -10 -50 -10 -66 0 -7 4 -12 2 -12 -4 0 -7 -6 -8 -16 -2 -8 5
-36 6 -60 2 -25 -4 -47 -4 -49 0 -5 8 -49 5 -65 -5 -6 -4 -16 -2 -23 4 -8 6
-18 6 -27 1 -9 -5 -19 -5 -27 1 -8 7 -18 7 -32 0 -14 -8 -22 -8 -26 -1 -5 8
-11 7 -21 -1 -11 -9 -17 -9 -28 0 -10 8 -16 9 -21 1 -4 -6 -13 -7 -23 -2 -9 4
-42 6 -72 5 -68 -5 -69 -5 -102 0 -16 2 -28 0 -28 -5 0 -5 -7 -5 -17 0 -9 6
-29 6 -45 2 -15 -5 -28 -5 -28 -2 0 9 -67 8 -76 0 -3 -3 -18 -3 -32 1 -15 4
-38 6 -52 4 -14 -2 -32 -3 -40 -3 -225 3 -440 1 -448 -4 -6 -3 -13 -3 -15 1
-6 9 -121 8 -136 -1 -5 -4 -12 -2 -16 4 -4 6 -13 7 -23 1 -11 -6 -24 -6 -34 0
-10 6 -19 6 -22 0z"/>
</g>
</svg>
